<?xml version="1.0" standalone="no"?><!DOCTYPE svg PUBLIC "-//W3C//DTD SVG 1.1//EN" "http://www.w3.org/Graphics/SVG/1.1/DTD/svg11.dtd"><svg t="1731488618806" class="icon" viewBox="0 0 1024 1024" version="1.1" xmlns="http://www.w3.org/2000/svg" p-id="14035" xmlns:xlink="http://www.w3.org/1999/xlink" width="64" height="64"><path d="M618.1 757.9c8.8 0 17.6-3.3 24.2-10.1 13.4-13.4 13.4-35.2 0-48.5L454.6 511.9l187.7-187.7c13.4-13.4 13.4-35.2 0-48.5-6.6-6.6-15.4-10.1-24.2-10.1s-17.6 3.3-24.2 10.1l-212 212c-13.4 13.4-13.4 35.2 0 48.5L593.8 748c6.7 6.6 15.5 9.9 24.3 9.9z" fill="#383838" p-id="14036"></path><path d="M512 955.4c-244.5 0-443.4-199-443.4-443.4S267.5 68.6 512 68.6s443.4 199 443.4 443.4S756.5 955.4 512 955.4m0 68.6c282.7 0 512-229.3 512-512S794.7 0 512 0 0 229.3 0 512s229.3 512 512 512z" fill="#383838" p-id="14037"></path></svg>