<?xml version="1.0" standalone="no"?><!DOCTYPE svg PUBLIC "-//W3C//DTD SVG 1.1//EN" "http://www.w3.org/Graphics/SVG/1.1/DTD/svg11.dtd"><svg t="1731488616115" class="icon" viewBox="0 0 1024 1024" version="1.1" xmlns="http://www.w3.org/2000/svg" p-id="13891" xmlns:xlink="http://www.w3.org/1999/xlink" width="64" height="64"><path d="M405.9 266.1c-8.8 0-17.6 3.3-24.2 10.1-13.4 13.4-13.4 35.2 0 48.5l187.7 187.7-187.7 187.4c-13.4 13.4-13.4 35.2 0 48.5 6.6 6.6 15.4 10.1 24.2 10.1s17.6-3.3 24.2-10.1L642 536.4c13.4-13.4 13.4-35.2 0-48.5L430.2 276c-6.7-6.6-15.5-9.9-24.3-9.9z" fill="#383838" p-id="13892"></path><path d="M512 68.6c244.5 0 443.4 199 443.4 443.4S756.5 955.4 512 955.4 68.6 756.5 68.6 512 267.5 68.6 512 68.6M512 0C229.3 0 0 229.3 0 512s229.3 512 512 512 512-229.3 512-512S794.7 0 512 0z" fill="#383838" p-id="13893"></path></svg>