<?xml version="1.0" standalone="no"?><!DOCTYPE svg PUBLIC "-//W3C//DTD SVG 1.1//EN" "http://www.w3.org/Graphics/SVG/1.1/DTD/svg11.dtd"><svg t="1731488513073" class="icon" viewBox="0 0 1024 1024" version="1.1" xmlns="http://www.w3.org/2000/svg" p-id="11486" xmlns:xlink="http://www.w3.org/1999/xlink" width="64" height="64"><path d="M512 64C264.6 64 64 264.6 64 512s200.6 448 448 448 448-200.6 448-448S759.4 64 512 64z m113.8 469.3L440.4 718.7c-5.8 5.8-13.5 8.8-21.2 8.8s-15.4-2.9-21.2-8.8c-11.7-11.7-11.7-30.8 0-42.4l164.2-164.2L398 347.9c-11.7-11.7-11.7-30.8 0-42.4 5.8-5.8 13.5-8.8 21.2-8.8s15.4 2.9 21.2 8.8l185.4 185.4c11.7 11.7 11.7 30.8 0 42.4z" p-id="11487"></path></svg>